<meta name="description" content="Sagar Wankhade is a Software Developer based in Pune, India with 6.8+ years of experience building mobile apps, ERP, CRM, ecommerce platforms, websites, and payment gateway integrations."></meta><svg width="64" height="64" viewBox="0 0 64 64" fill="none" xmlns="http://www.w3.org/2000/svg">
  <rect width="64" height="64" rx="18" fill="#081120"/>
  <rect x="4" y="4" width="56" height="56" rx="16" fill="url(#paint0_linear)"/>
  <path d="M21.134 39.846C23.118 42.25 26.178 43.75 29.79 43.75C35.388 43.75 39.07 40.978 39.07 36.582C39.07 32.822 36.802 30.926 31.812 29.78L28.842 29.098C26.09 28.46 25.044 27.58 25.044 26.126C25.044 24.364 26.706 23.152 29.482 23.152C32.082 23.152 33.832 24.232 34.834 26.214L39.114 24.012C37.306 20.518 33.92 18.75 29.57 18.75C23.756 18.75 19.872 21.808 19.872 26.654C19.872 30.5 22.318 32.748 27.156 33.852L30.17 34.556C33.032 35.216 33.9 36.008 33.9 37.55C33.9 39.378 32.194 40.56 29.46 40.56C26.376 40.56 24.406 39.194 22.988 36.966L21.134 39.846Z" fill="#04111D"/>
  <defs>
    <linearGradient id="paint0_linear" x1="7" y1="7" x2="57" y2="57" gradientUnits="userSpaceOnUse">
      <stop stop-color="#74F2CE"/>
      <stop offset="0.55" stop-color="#7AA2FF"/>
      <stop offset="1" stop-color="#FF8D6C"/>
    </linearGradient>
  </defs>
</svg>
