<svg width="800" height="500" viewBox="0 0 800 500" fill="none" xmlns="http://www.w3.org/2000/svg">
  <rect width="800" height="500" rx="36" fill="#07111F"/>
  <circle cx="125" cy="105" r="130" fill="url(#paint0_radial)" fill-opacity="0.8"/>
  <circle cx="690" cy="430" r="180" fill="url(#paint1_radial)" fill-opacity="0.9"/>
  <rect x="96" y="78" width="608" height="344" rx="28" fill="#0F1B2D" stroke="#244360"/>
  <rect x="132" y="126" width="176" height="232" rx="24" fill="#08101C" stroke="#2C577B"/>
  <rect x="344" y="126" width="324" height="50" rx="18" fill="#10233A"/>
  <rect x="344" y="202" width="264" height="24" rx="12" fill="#15304D"/>
  <rect x="344" y="242" width="220" height="24" rx="12" fill="#15304D"/>
  <rect x="344" y="282" width="180" height="24" rx="12" fill="#15304D"/>
  <rect x="344" y="330" width="180" height="44" rx="22" fill="url(#paint2_linear)"/>
  <text x="148" y="168" fill="#F3F7FF" font-family="Arial, sans-serif" font-size="28" font-weight="700">WALLET</text>
  <text x="376" y="160" fill="#F3F7FF" font-family="Arial, sans-serif" font-size="30" font-weight="700">Payment App UX</text>
  <defs>
    <radialGradient id="paint0_radial" cx="0" cy="0" r="1" gradientUnits="userSpaceOnUse" gradientTransform="translate(125 105) rotate(90) scale(130)">
      <stop stop-color="#74F2CE"/>
      <stop offset="1" stop-color="#74F2CE" stop-opacity="0"/>
    </radialGradient>
    <radialGradient id="paint1_radial" cx="0" cy="0" r="1" gradientUnits="userSpaceOnUse" gradientTransform="translate(690 430) rotate(90) scale(180)">
      <stop stop-color="#7AA2FF"/>
      <stop offset="1" stop-color="#7AA2FF" stop-opacity="0"/>
    </radialGradient>
    <linearGradient id="paint2_linear" x1="344" y1="330" x2="524" y2="374" gradientUnits="userSpaceOnUse">
      <stop stop-color="#74F2CE"/>
      <stop offset="1" stop-color="#7AA2FF"/>
    </linearGradient>
  </defs>
</svg>
